<svg xmlns="http://www.w3.org/2000/svg" xmlns:xlink="http://www.w3.org/1999/xlink" viewBox="0 0 533.8 70" shape-rendering="geometricPrecision" text-rendering="geometricPrecision"><g><path d="M184.6,50.7c0,0-9.3-12.5-9.9-13.3-.6-.9-1.9-2-1.9-2l.6-.1c7.3-.9,12.4-5.2,12.4-11.5c0-7.5-5.7-11.3-15.7-11.3h-15.7c2,3.4,2,3.8,2,8.5v30c0,3.2,0,3.5-2,7h11.6c-2.7-3.5-2.7-3.5-2.7-7v-15h2.3c0,0,10.2,13.3,12.6,16.8c2.5,3.8,3.5,5.2,3.5,5.2h10.1c-2.2-1.1-4.8-4.1-7.2-7.3ZM163.2,32.1v-15.7h5.5c6.9,0,10.2,2.7,9.9,7.5-.3,5.6-4.3,8.2-15.4,8.2ZM390.6,45.2c0,8.2-6.4,13.6-15.6,13.6-6.4,0-11.5-1.7-14-2.8l-.9-11c5.1,6.8,9.8,9.4,16.1,9.4c5.1,0,8.3-2.8,8.3-7.3c0-3.2-1.9-6-6.3-7.8l-8.4-3.5c-6.1-2.5-8.7-6.4-8.7-11.7c0-7.5,6.1-12.7,14.7-12.7c5.3,0,8.5,1.2,12.3,3v8.9c-3.6-5.9-7.9-7.6-13.3-7.6-4.8,0-7.6,2.8-7.6,6.4c0,3.1,1.7,5.3,5.6,7l8.8,3.6c5.9,2.6,9,6.7,9,12.5Zm63.7-32.8h-5.7L434,51.3c-1.3,3.2-1.3,3.2-3.2,6.7h8.9c-2.1-3.4-1.5-4.8-.5-7.5l2.9-7.6l16.7.1l2.7,7.2c.9,2.4,1.5,4.1-.5,7.8h11.5c-1.8-3.3-1.8-3.3-3.2-6.5l-15-39.1ZM443.4,38.8l6.9-18.3L457.1,39l-13.7-.2Zm48.8-1.1v13.9c0,1.6,0,3,2.4,6.4h-11.5c2.3-3.3,2.3-5,2.3-6.7v-13.3L473.9,19.3c-2.1-3.5-2.1-3.5-4.8-6.7h11.5c-.9,2.9-1,3.3.5,5.8L490,33.1l8.9-14.2c1.6-2.3,1-3.4.2-6.3h9.5c-2.5,3.2-2.5,3.2-4.5,6.4L492.2,37.7ZM27.2,54.1c0,0,14-.2,20.8-2.5L47,58h-28.6c2-3.5,2-3.8,2-7.3v-30.8c0-3.6,0-4-2-7.4h29v7.9c-4.1-3.8-8.9-3.8-11.2-3.8h-9v15.3h3.7c2.1,0,8.4-.4,11.7-1.4v6.8C38.9,35.9,32.7,36,30.7,36h-3.5v18.1Zm97,0c0,0,14-.2,20.8-2.5L144,58h-28.6c2-3.5,2-3.8,2-7.3v-30.8c0-3.6,0-4-2-7.4h29v7.9c-4.1-3.8-8.9-3.8-11.2-3.8h-9v15.3h3.7c2.1,0,8.4-.4,11.7-1.4v6.8c-3.7-1.4-9.9-1.3-11.9-1.3h-3.5v18.1ZM103.3,26.5v24c0,4.1,0,4.1,2,7.5h-11.6c2.9-3.6,2.9-3.6,2.9-7.8v-28.8L80.4,57.6L63.3,21.5v28.9c0,4,0,4.1,2.5,7.6h-9.1c2-3.5,2-3.6,2-7.6v-24c0-9.1,0-10.4-2-13.8h10.4L81.6,44.2L95.3,12.6h10.1c-2.1,3.5-2.1,4.6-2.1,13.9ZM218.5,12.4h-5.7L198.2,51.3c-1.3,3.2-1.3,3.2-3.2,6.7h8.2c-1.1-3.7-.9-4.8.2-7.5l2.9-7.6L223,43l2.7,7.2c.9,2.4,1.5,4.1-.5,7.8h11.5c-1.8-3.3-1.8-3.3-3.2-6.5l-15-39.1ZM207.6,38.8l6.9-18.3L221.3,39l-13.7-.2Zm87-26.2h-15c2,3.4,2,5.9,2,7.5v30.4c0,1.7,0,4.1-2,7.6h13.5c17.2,0,25.5-8,25.5-22.7-.1-14.8-8.9-22.8-24-22.8Zm-6.2,41.5v-.9-36.6h6c9.1,0,16.8,6.1,16.8,18.7.1,12.5-7.7,18.8-22.8,18.8Zm-36.9,0c0,0,14-.2,20.8-2.5l-1,6.4h-28.6c2-3.5,2-3.5,2-7.6v-29.8c0-4.3,0-4.6-2-8.1h10.9c-2.1,3.5-2.1,3.8-2.1,8.2v33.4Zm165.3-1.2c0,1.6,0,1.6,2.5,5.1h-11.9c2.7-3.6,2.7-3.6,2.7-5.3v-36.4c-4.1,0-7.6,0-15.2,3.1l1-6.8h35.1l1,6.8c-7.6-3.1-11.1-3.1-15.2-3.1v36.6Z" fill="#00A062"/></g></svg>